<?xml version="1.0" encoding="UTF-8"?><svg xmlns="http://www.w3.org/2000/svg" viewBox="0 0 650.59 148.18"><defs><style>.cls-1{fill:none;}.cls-2{fill:#2eb8bc;}.cls-3{fill:#1a3a81;}</style></defs><g id="Background_Clear_Area"><rect class="cls-1" x="-75.57" y="-77.86" width="803.26" height="298.56"/></g><g id="Logo"><g id="Type"><path class="cls-3" d="m241.28,3.13l43.24,52.6V3.13h15.29v79.75h-13.8l-44.04-53.96v53.96h-15.17V3.13h14.49Z"/><path class="cls-3" d="m362.1,72.39v8.78c-2.97,1.6-6.05,2.85-10.5,2.85-5.13,0-8.1-2.74-9.13-5.82-3.54,3.99-9.13,5.82-13.69,5.82-8.9,0-17-5.25-17-14.83s6.96-15.29,17.57-18.25c3.65-1.14,8.1-1.94,11.52-2.51v-1.6c0-5.7-2.74-8.67-8.1-8.67-6.05,0-11.87,2.28-17.57,6.62v-12.09c4.68-3.99,11.87-6.16,19.62-6.16,6.27,0,11.98,1.83,15.4,5.25,3.31,3.31,5.25,7.76,5.25,13.46v25.67c0,1.71.46,2.62,1.83,2.85,1.37.34,3.31-.46,4.79-1.37Zm-28.64,1.26c2.74,0,5.48-1.26,7.3-3.65v-12.89c-9.81,1.37-15.06,4.45-15.06,10.38,0,3.76,2.97,6.16,7.76,6.16Z"/><path class="cls-3" d="m373.28,66.11v-27.04h-8.1v-3.76l22.48-21.56v14.03h16.77v11.29h-16.77v25.67c0,4.91,2.4,7.64,6.16,8.1h1.83c3.77,0,7.19-1.37,10.61-3.54v11.18c-4.11,2.51-9.93,3.88-14.26,3.88-11.07,0-18.71-5.36-18.71-18.25Z"/><path class="cls-3" d="m417.43,12.03c0-4.56,3.76-8.21,8.21-8.21s8.21,3.65,8.21,8.21-3.65,8.1-8.21,8.1-8.21-3.65-8.21-8.1Zm15.52,15.74v55.11h-14.6V27.78h14.6Z"/><path class="cls-3" d="m443.55,55.27c0-16.54,13.01-28.98,30.12-28.98s30.23,12.21,30.23,28.98c0,14.38-10.38,28.98-30.35,28.98-17.11,0-30.01-12.44-30.01-28.98Zm15.4,0c0,10.15,6.16,17.11,14.72,17.11s14.95-6.96,14.95-17.11-6.27-17.11-14.95-17.11-14.72,6.96-14.72,17.11Z"/><path class="cls-3" d="m527.86,27.78v6.5c4.22-5.59,9.81-7.76,16.89-7.76,10.04,0,19.4,5.59,19.4,21.45v34.91h-14.6v-34.91c0-3.99-1.37-10.04-8.9-10.04-4.45,0-9.24,2.62-11.87,7.64v37.31h-14.6V27.78h13.69Z"/><path class="cls-3" d="m625.29,72.39v8.78c-2.97,1.6-6.05,2.85-10.5,2.85-5.13,0-8.1-2.74-9.13-5.82-3.54,3.99-9.13,5.82-13.69,5.82-8.9,0-17-5.25-17-14.83s6.96-15.29,17.57-18.25c3.65-1.14,8.1-1.94,11.52-2.51v-1.6c0-5.7-2.74-8.67-8.1-8.67-6.05,0-11.87,2.28-17.57,6.62v-12.09c4.68-3.99,11.87-6.16,19.62-6.16,6.27,0,11.98,1.83,15.4,5.25,3.31,3.31,5.25,7.76,5.25,13.46v25.67c0,1.71.46,2.62,1.83,2.85,1.37.34,3.31-.46,4.79-1.37Zm-28.64,1.26c2.74,0,5.48-1.26,7.3-3.65v-12.89c-9.81,1.37-15.06,4.45-15.06,10.38,0,3.76,2.97,6.16,7.76,6.16Z"/><path class="cls-3" d="m647.2,3.13v79.75h-14.49V3.13h14.49Z"/><path class="cls-3" d="m311.99,109.32v2.41l-2.41.62c-.67.17-.95.56-.95,1.23v15.79c0,8.68-4.59,12.21-12.15,12.21-8.29,0-12.15-3.98-12.15-12.6v-15.4c0-.67-.34-1.06-.95-1.23l-2.24-.62v-2.41h13.5v2.41l-3.53.67c-.62.11-1.01.62-1.01,1.29v15.79c0,6.72,2.58,9.58,7.34,9.58,5.43,0,7.45-3.53,7.45-9.41v-16.02c0-.73-.28-1.12-.95-1.23l-3.53-.67v-2.41h11.59Z"/><path class="cls-3" d="m346.82,113.63v27.5h-4.87l-16.07-25.14v20.94c0,.67.34,1.12,1.01,1.23l3.7.62v2.35h-12.38v-2.35l3.25-.62c.67-.11,1.01-.56,1.01-1.23v-23.3c0-.67-.34-1.12-1.01-1.23l-3.25-.67v-2.41h9.97l15.29,23.8v-19.49c0-.67-.39-1.12-1.06-1.23l-3.42-.67v-2.41h11.82v2.41l-2.97.67c-.62.11-1.01.5-1.01,1.23Z"/><path class="cls-3" d="m371.02,111.73l-3.19.67c-.73.11-1.06.5-1.06,1.23v23.3c0,.67.34,1.12,1.06,1.23l3.19.62v2.35h-14.11v-2.35l3.25-.62c.67-.11,1.01-.56,1.01-1.23v-23.3c0-.67-.34-1.12-1.01-1.23l-3.25-.67v-2.41h14.11v2.41Z"/><path class="cls-3" d="m379.86,113.41c-.22-.62-.62-.9-1.18-1.01l-2.46-.67v-2.41h13.33v2.41l-4.09.78,8.34,23.52,7.5-23.52-4.09-.78v-2.41h11.09v2.41l-2.58.67c-.56.11-.95.39-1.18,1.01l-9.3,27.83h-5.04l-10.36-27.83Z"/><path class="cls-3" d="m434.35,117.44l-1.01-3.86c-.17-.62-.5-.95-1.18-1.23-.84-.28-2.35-.45-3.98-.45h-4.54v11.54l9.52-.34v3.47l-9.52-.22v12.04h5.6c1.68,0,3.36-.17,4.26-.5.62-.22.84-.62,1.12-1.23l1.57-4.65,2.74.39c-.06,2.91-.34,5.77-.84,8.74h-24.3v-2.35l3.25-.62c.67-.11,1.01-.56,1.01-1.23v-23.3c0-.67-.34-1.12-1.01-1.23l-3.25-.67v-2.41h23.24c.28,2.63.28,5.26.06,8.12h-2.74Z"/><path class="cls-3" d="m447.23,141.12v-2.35l3.25-.62c.67-.11,1.01-.5,1.01-1.23v-23.35c0-.67-.34-1.06-1.01-1.18l-3.25-.67v-2.41h7c2.35,0,4.26-.28,7.06-.28,8.46,0,11.76,2.58,11.76,8.46,0,6.27-3.86,8.12-6.89,8.9,1.79,1.01,2.97,2.46,4.14,4.87l2.8,5.54c.45,1.01.84,1.23,1.68,1.46l2.13.5v2.35h-7.06c-1.23,0-2.13-1.85-3.42-4.65l-2.07-4.7c-.84-1.9-1.68-3.53-2.58-4.48h-4.7v9.69c0,.73.34,1.06,1.06,1.18l3.36.62v2.35h-14.28Zm19.88-23.35c0-4.2-1.68-6.27-6.55-6.27-1.4,0-2.74.17-3.47.22v13.05c1.62.11,3.81.11,4.59.11,3.19-.06,5.43-2.18,5.43-7.11Z"/><path class="cls-3" d="m493.77,141.8c-4.26,0-7.9-1.29-10.19-2.58-.17-2.74.06-5.77.45-8.29h3.25l.73,4.93c.11.5.28,1.01.84,1.46.95,1.01,2.91,1.96,5.21,1.96,3.58,0,5.49-1.9,5.49-4.98,0-3.81-2.97-5.26-7.06-7.22-4.03-1.96-8.51-4.14-8.51-9.63,0-4.98,3.64-8.68,10.81-8.68,3.08,0,6.38.62,8.68,1.68.17,2.69,0,5.38-.39,7.84h-3.14l-.84-4.31c-.11-.67-.34-1.12-.84-1.57-.84-.67-2.41-1.23-4.09-1.23-3.19,0-4.93,1.68-4.93,4.42,0,3.53,2.69,4.82,7.28,7.06,4.48,2.24,8.68,4.7,8.68,9.8,0,4.59-3.3,9.35-11.42,9.35Z"/><path class="cls-3" d="m525.74,111.73l-3.19.67c-.73.11-1.06.5-1.06,1.23v23.3c0,.67.34,1.12,1.06,1.23l3.19.62v2.35h-14.11v-2.35l3.25-.62c.67-.11,1.01-.56,1.01-1.23v-23.3c0-.67-.34-1.12-1.01-1.23l-3.25-.67v-2.41h14.11v2.41Z"/><path class="cls-3" d="m538.34,141.12v-2.35l4.82-.78c.67-.11,1.06-.45,1.06-1.18v-24.92h-2.18c-1.57,0-3.02.17-3.75.39-.62.22-.9.56-1.06,1.23l-1.46,6.16h-2.86c-.34-3.75-.34-6.83.06-10.36h28.06c.39,3.53.34,6.66,0,10.36h-2.86l-1.51-6.22c-.11-.62-.45-.95-1.01-1.18-.73-.22-2.07-.39-3.7-.39h-2.18v24.92c0,.73.39,1.06,1.06,1.18l4.76.78v2.35h-17.25Z"/><path class="cls-3" d="m572.45,141.12v-2.35l3.86-.78c.73-.11,1.06-.45,1.06-1.18v-7.95l-8.9-15.57c-.28-.5-.67-.78-1.23-.95l-2.58-.62v-2.41h13.5v2.41l-3.58.78,6.89,12.66,6.33-12.66-3.7-.78v-2.41h10.75v2.41l-2.46.56c-.56.17-.95.39-1.23.95l-8.06,15.68v7.9c0,.73.34,1.06,1.06,1.18l3.92.78v2.35h-15.62Z"/></g><g id="Shield"><path class="cls-3" d="m67.73,3.51H3.11v12.13s.79.04,8.82,1.6c12.45,2.42,13.2,1.58,13.09,10.45v74.6c0,22.56,17.08,40.91,38.07,40.91h4.64V3.51Z"/><polygon class="cls-2" points="67.73 3.51 67.73 70.63 131.8 143.21 131.8 76.13 67.73 3.51"/><path class="cls-3" d="m131.8,3.51h4.31s60.31,0,60.31,0v12.13s-.79.04-8.82,1.6c-12.45,2.42-13.2,1.58-13.09,10.45v74.6c0,22.56-17.08,40.91-38.07,40.91h-4.64V3.51Z"/></g></g></svg>